<svg xmlns="http://www.w3.org/2000/svg" width="51" height="51" viewBox="0 0 51 51">
  <g id="Сгруппировать_42600" data-name="Сгруппировать 42600" transform="translate(-334 -10517.754)">
    <rect id="Прямоугольник_1572" data-name="Прямоугольник 1572" width="51" height="51" rx="25.5" transform="translate(334 10517.754)" fill="#3517c6"/>
    <g id="Сгруппировать_3187" data-name="Сгруппировать 3187" transform="translate(342.609 10526.559)">
      <g id="Сгруппировать_1147" data-name="Сгруппировать 1147">
        <path id="Контур_2588" data-name="Контур 2588" d="M360.033,164.448l-.419,1.255-1.323.01a.178.178,0,0,0-.1.322l1.064.786-.4,1.262a.178.178,0,0,0,.274.2l1.076-.769,1.076.769a.178.178,0,0,0,.274-.2l-.4-1.262,1.064-.786a.178.178,0,0,0-.1-.322l-1.323-.01-.419-1.255A.178.178,0,0,0,360.033,164.448Z" transform="translate(-330.248 -156.69)" fill="#fc5"/>
        <path id="Контур_2589" data-name="Контур 2589" d="M360.033,164.448l-.419,1.255-1.323.01a.178.178,0,0,0-.1.322l1.064.786-.4,1.262a.178.178,0,0,0,.274.2l1.076-.769,1.076.769a.178.178,0,0,0,.274-.2l-.4-1.262,1.064-.786a.178.178,0,0,0-.1-.322l-1.323-.01-.419-1.255A.178.178,0,0,0,360.033,164.448Z" transform="translate(-328.624 -149.054)" fill="#fc5"/>
        <path id="Контур_2595" data-name="Контур 2595" d="M360.033,164.448l-.419,1.255-1.323.01a.178.178,0,0,0-.1.322l1.064.786-.4,1.262a.178.178,0,0,0,.274.2l1.076-.769,1.076.769a.178.178,0,0,0,.274-.2l-.4-1.262,1.064-.786a.178.178,0,0,0-.1-.322l-1.323-.01-.419-1.255A.178.178,0,0,0,360.033,164.448Z" transform="translate(-358.114 -149.054)" fill="#fc5"/>
        <path id="Контур_2590" data-name="Контур 2590" d="M360.033,164.448l-.419,1.255-1.323.01a.178.178,0,0,0-.1.322l1.064.786-.4,1.262a.178.178,0,0,0,.274.2l1.076-.769,1.076.769a.178.178,0,0,0,.274-.2l-.4-1.262,1.064-.786a.178.178,0,0,0-.1-.322l-1.323-.01-.419-1.255A.178.178,0,0,0,360.033,164.448Z" transform="translate(-335.997 -136.662)" fill="#fc5"/>
        <path id="Контур_2598" data-name="Контур 2598" d="M360.033,164.448l-.419,1.255-1.323.01a.178.178,0,0,0-.1.322l1.064.786-.4,1.262a.178.178,0,0,0,.274.2l1.076-.769,1.076.769a.178.178,0,0,0,.274-.2l-.4-1.262,1.064-.786a.178.178,0,0,0-.1-.322l-1.323-.01-.419-1.255A.178.178,0,0,0,360.033,164.448Z" transform="translate(-335.997 -162.295)" fill="#fc5"/>
        <path id="Контур_2591" data-name="Контур 2591" d="M360.033,164.448l-.419,1.255-1.323.01a.178.178,0,0,0-.1.322l1.064.786-.4,1.262a.178.178,0,0,0,.274.2l1.076-.769,1.076.769a.178.178,0,0,0,.274-.2l-.4-1.262,1.064-.786a.178.178,0,0,0-.1-.322l-1.323-.01-.419-1.255A.178.178,0,0,0,360.033,164.448Z" transform="translate(-343.369 -134.63)" fill="#fc5"/>
        <path id="Контур_2599" data-name="Контур 2599" d="M360.033,164.448l-.419,1.255-1.323.01a.178.178,0,0,0-.1.322l1.064.786-.4,1.262a.178.178,0,0,0,.274.2l1.076-.769,1.076.769a.178.178,0,0,0,.274-.2l-.4-1.262,1.064-.786a.178.178,0,0,0-.1-.322l-1.323-.01-.419-1.255A.178.178,0,0,0,360.033,164.448Z" transform="translate(-343.369 -164.326)" fill="#fc5"/>
        <path id="Контур_2592" data-name="Контур 2592" d="M360.033,164.448l-.419,1.255-1.323.01a.178.178,0,0,0-.1.322l1.064.786-.4,1.262a.178.178,0,0,0,.274.2l1.076-.769,1.076.769a.178.178,0,0,0,.274-.2l-.4-1.262,1.064-.786a.178.178,0,0,0-.1-.322l-1.323-.01-.419-1.255A.178.178,0,0,0,360.033,164.448Z" transform="translate(-350.742 -136.662)" fill="#fc5"/>
        <path id="Контур_2597" data-name="Контур 2597" d="M360.033,164.448l-.419,1.255-1.323.01a.178.178,0,0,0-.1.322l1.064.786-.4,1.262a.178.178,0,0,0,.274.2l1.076-.769,1.076.769a.178.178,0,0,0,.274-.2l-.4-1.262,1.064-.786a.178.178,0,0,0-.1-.322l-1.323-.01-.419-1.255A.178.178,0,0,0,360.033,164.448Z" transform="translate(-350.742 -162.295)" fill="#fc5"/>
        <path id="Контур_2593" data-name="Контур 2593" d="M360.033,164.448l-.419,1.255-1.323.01a.178.178,0,0,0-.1.322l1.064.786-.4,1.262a.178.178,0,0,0,.274.2l1.076-.769,1.076.769a.178.178,0,0,0,.274-.2l-.4-1.262,1.064-.786a.178.178,0,0,0-.1-.322l-1.323-.01-.419-1.255A.178.178,0,0,0,360.033,164.448Z" transform="translate(-356.084 -142.266)" fill="#fc5"/>
        <path id="Контур_2596" data-name="Контур 2596" d="M360.033,164.448l-.419,1.255-1.323.01a.178.178,0,0,0-.1.322l1.064.786-.4,1.262a.178.178,0,0,0,.274.2l1.076-.769,1.076.769a.178.178,0,0,0,.274-.2l-.4-1.262,1.064-.786a.178.178,0,0,0-.1-.322l-1.323-.01-.419-1.255A.178.178,0,0,0,360.033,164.448Z" transform="translate(-356.084 -156.69)" fill="#fc5"/>
        <path id="Контур_2594" data-name="Контур 2594" d="M360.033,164.448l-.419,1.255-1.323.01a.178.178,0,0,0-.1.322l1.064.786-.4,1.262a.178.178,0,0,0,.274.2l1.076-.769,1.076.769a.178.178,0,0,0,.274-.2l-.4-1.262,1.064-.786a.178.178,0,0,0-.1-.322l-1.323-.01-.419-1.255A.178.178,0,0,0,360.033,164.448Z" transform="translate(-330.248 -142.266)" fill="#fc5"/>
      </g>
      <path id="Контур_2991" data-name="Контур 2991" d="M66.907,4.37H66.37V3.04a3.038,3.038,0,1,0-6.077,0V4.37h-.538a.314.314,0,0,0-.314.315v5.9a.314.314,0,0,0,.314.315h7.152a.314.314,0,0,0,.314-.315v-5.9A.314.314,0,0,0,66.907,4.37Zm-3.086,3.59V9.217a.2.2,0,0,1-.2.2H63.04a.2.2,0,0,1-.2-.2V7.961a.849.849,0,1,1,.98,0Zm1.1-3.59H61.744V3.04a1.588,1.588,0,1,1,3.176,0Z" transform="translate(-46.734 10.899)" fill="#fdfcfb"/>
    </g>
  </g>
</svg>
